<?xml version="1.0" standalone="no"?>
<!DOCTYPE svg PUBLIC "-//W3C//DTD SVG 1.1//EN" "http://www.w3.org/Graphics/SVG/1.1/DTD/svg11.dtd">

<svg style="stroke-linejoin:round; stroke:black; stroke-width:0.5pt; text-anchor:middle; fill:none" xmlns="http://www.w3.org/2000/svg" font-family="Helvetica, Arial, FreeSans, Sans, sans, sans-serif" height="400px" width="400px" version="1.1" xmlns:xlink="http://www.w3.org/1999/xlink" viewBox="0 0 100 100">

<g>

<g>

<path stroke-width="0.25pt" d="M20.0069 20.0069L21.0676 21.0675M92.2553 46.3031L90.761 46.4339M91.7723 42.6344L90.2951 42.8949M90.9713 39.0217L89.5225 39.41M89.8586 35.4926L88.4491 36.0057M88.4425 32.0739L87.0831 32.7079M86.7339 28.7916L85.4349 29.5417M84.7457 25.6708L83.517 26.5312M82.493 22.7351L81.344 23.6993M82.493 22.7351L81.344 23.6993M77.2649 17.5069L76.3007 18.656M74.3292 15.2543L73.4689 16.483M71.2083 13.2661L70.4584 14.5651M67.926 11.5574L67.2922 12.9169M64.5073 10.1414L63.9943 11.5509M60.9782 9.02864L60.59 10.4775M57.3656 8.22773L57.1051 9.70495M53.6968 7.74474L53.5661 9.23904M53.6968 7.74474L53.5661 9.23904M46.3031 7.74474L46.4339 9.23903M42.6344 8.22774L42.8949 9.70495M39.0217 9.02865L39.41 10.4775M35.4926 10.1414L36.0057 11.5509M32.0739 11.5575L32.7079 12.9169M28.7916 13.2661L29.5417 14.5651M25.6708 15.2543L26.5312 16.483M22.7351 17.507L23.6993 18.656M22.7351 17.507L23.6993 18.656M17.5069 22.7351L18.656 23.6993M15.2543 25.6708L16.483 26.5311M13.2661 28.7917L14.5651 29.5416M11.5574 32.074L12.9169 32.7078M10.1414 35.4927L11.5509 36.0057M9.02864 39.0218L10.4775 39.41M8.22773 42.6344L9.70495 42.8949M7.74474 46.3032L9.23904 46.4339M7.74474 46.3032L9.23904 46.4339M7.74474 53.6969L9.23903 53.5661M8.22774 57.3656L9.70495 57.1051M9.02865 60.9783L10.4775 60.59M10.1414 64.5074L11.5509 63.9943M11.5575 67.9261L12.9169 67.2921M13.2661 71.2084L14.5651 70.4583M15.2543 74.3292L16.483 73.4688M17.507 77.2649L18.656 76.3007M17.507 77.2649L18.656 76.3007M22.7351 82.4931L23.6993 81.344M25.6708 84.7457L26.5311 83.517M28.7917 86.7339L29.5416 85.4349M32.074 88.4426L32.7078 87.0831M35.4927 89.8586L36.0057 88.4491M39.0218 90.9714L39.41 89.5225M42.6344 91.7723L42.8949 90.295M46.3032 92.2553L46.4339 90.761M46.3032 92.2553L46.4339 90.761M53.6969 92.2553L53.5661 90.761M57.3656 91.7723L57.1051 90.2951M60.9783 90.9713L60.59 89.5225M64.5074 89.8586L63.9943 88.4491M67.9261 88.4425L67.2921 87.0831M71.2084 86.7339L70.4583 85.4349M74.3292 84.7457L73.4688 83.517M77.2649 82.493L76.3007 81.344M77.2649 82.493L76.3007 81.344M82.4931 77.2649L81.344 76.3007M84.7457 74.3292L83.517 73.4689M86.7339 71.2083L85.4349 70.4584M88.4426 67.926L87.0831 67.2922M89.8586 64.5073L88.4491 63.9943M90.9714 60.9782L89.5225 60.59M91.7723 57.3656L90.295 57.1051M92.2553 53.6968L90.761 53.5661" />

<path stroke-width="0.25pt" d="M93.1667 50L90.1667 50M19.4766 80.5235L21.5978 78.4021M80.5235 80.5234L78.4021 78.4022M6.83333 50L9.83333 50M50 93.1667L50 90.1667M50 6.83333L50 9.83333M80.5234 19.4765L78.4022 21.5979M19.4765 19.4766L21.5979 21.5978" />

<text stroke="none" transform="translate(94.1667, 49.9999) rotate(89.9982)" font-size="5" fill="yellow">0</text>

<text stroke="none" transform="translate(18.7695, 81.2306) rotate(224.998)" font-size="5" fill="black">225</text>

<text stroke="none" transform="translate(81.2306, 81.2305) rotate(134.998)" font-size="5" fill="black">315</text>

<text stroke="none" transform="translate(5.83333, 50.0001) rotate(269.998)" font-size="5" fill="black">180</text>

<text stroke="none" transform="translate(50.0001, 94.1667) rotate(179.998)" font-size="5" fill="black">270</text>

<text stroke="none" transform="translate(49.9999, 5.83333) rotate(359.998)" font-size="5" fill="black">90</text>

<text stroke="none" transform="translate(81.2305, 18.7694) rotate(44.9982)" font-size="5" fill="black">45</text>

<text stroke="none" transform="translate(18.7694, 18.7695) rotate(314.998)" font-size="5" fill="black">135</text>

<path stroke-width="0.25pt" d="M91.6667 50L91.4151 45.4278L90.7888 41.4918L89.8723 37.9042L88.5401 34.1643L86.7878 30.4355L85.5902 28.3333L83.7289 25.5363L81.2913 22.487L78.5725 19.673L75.4963 17.0448L73.6824 15.718L69.8568 13.3691L67.3313 12.1089L64.1566 10.812L61.1211 9.84489L57.2319 8.96574L54.7512 8.6051L51.2374 8.35171L47.7465 8.39432L44.4922 8.69897L41.6173 9.18527L37.7195 10.1842L33.6563 11.6725L30.0114 13.4409L27.9712 14.6328L24.5803 16.9856L21.2925 19.8008L18.786 22.3993L16.3536 25.423L14.6521 27.9401L13.3156 30.2423L11.4624 34.1582L10.0674 38.1046L9.09652 42.0617L8.51959 46.0647L8.34589 51.0227L8.66642 55.258L8.9515 57.1507L9.62513 60.2947L10.7352 63.9422L12.1909 67.5095L13.3057 69.7393L14.8839 72.4271L16.4682 74.7332L19.0063 77.8479L22.6262 81.4131L24.7567 83.1495L28.353 85.6022L31.0301 87.0979L34.6917 88.7526L38.1669 89.9511L42.039 90.8991L46.3394 91.5056L49.7813 91.6661L53.4174 91.5263L58.2891 90.8338L62.3866 89.783L65.7157 88.5892L70.2305 86.4258L73.6552 84.3008L77.0396 81.7012L78.8481 80.0649L81.2833 77.5221L83.8642 74.276L86.4307 70.2217L88.1686 66.7114L89.4231 63.4881L90.2514 60.7674L90.9738 57.567L91.4855 53.8817L91.6667 50" />

</g>

<g>

<path stroke-width="0.25pt" d="M50.75 49.1667L49.25 49.1667M50.75 48.3333L49.25 48.3333M50.75 47.5L49.25 47.5M50.75 46.6667L49.25 46.6667M50.75 45.8333L49.25 45.8333M50.75 45L49.25 45M50.75 44.1667L49.25 44.1667M50.75 43.3333L49.25 43.3333M50.75 42.5L49.25 42.5M50.75 40.8333L49.25 40.8333M50.75 40L49.25 40M50.75 39.1667L49.25 39.1667M50.75 38.3333L49.25 38.3333M50.75 37.5L49.25 37.5M50.75 36.6667L49.25 36.6667M50.75 35.8333L49.25 35.8333M50.75 35L49.25 35M50.75 34.1667L49.25 34.1667M50.75 32.5L49.25 32.5M50.75 31.6667L49.25 31.6667M50.75 30.8333L49.25 30.8333M50.75 30L49.25 30M50.75 29.1667L49.25 29.1667M50.75 28.3333L49.25 28.3333M50.75 27.5L49.25 27.5M50.75 26.6667L49.25 26.6667M50.75 25.8333L49.25 25.8333M50.75 24.1667L49.25 24.1667M50.75 23.3333L49.25 23.3333M50.75 22.5L49.25 22.5M50.75 21.6667L49.25 21.6667M50.75 20.8333L49.25 20.8333M50.75 20L49.25 20M50.75 19.1667L49.25 19.1667M50.75 18.3333L49.25 18.3333M50.75 17.5L49.25 17.5M50.75 15.8333L49.25 15.8333M50.75 15L49.25 15M50.75 14.1667L49.25 14.1667M50.75 13.3333L49.25 13.3333M50.75 12.5L49.25 12.5M50.75 11.6667L49.25 11.6667M50.75 10.8333L49.25 10.8333M50.75 10L49.25 10M50.75 9.16667L49.25 9.16667M50.75 8.33333L49.25 8.33333" />

<path stroke-width="0.25pt" d="M51.5 50L48.5 50M51.5 41.6667L48.5 41.6667M51.5 33.3333L48.5 33.3333M51.5 25L48.5 25M51.5 16.6667L48.5 16.6667" />

<text font-size="5" transform="translate(45, 50) rotate(0)" stroke="none" dominant-baseline="text-before-edge" fill="black">0</text>

<text font-size="5" transform="translate(45, 41.6667) rotate(0)" stroke="none" dominant-baseline="text-before-edge" fill="black">1</text>

<text font-size="5" transform="translate(45, 33.3333) rotate(0)" stroke="none" dominant-baseline="text-before-edge" fill="black">2</text>

<text font-size="5" transform="translate(45, 25) rotate(0)" stroke="none" dominant-baseline="text-before-edge" fill="black">3</text>

<text font-size="5" transform="translate(45, 16.6667) rotate(0)" stroke="none" dominant-baseline="text-before-edge" fill="black">4</text>

<path stroke-width="0.25pt" d="M50 50L50 8.33333" />

</g>

<g>

<g>

<path stroke-width="0.25pt" d="" />

<path stroke-width="0.25pt" d="M64.2989 36.6238L62.0876 34.5964M68.0797 32.5L65.8684 30.4726" />

<path stroke-width="0.25pt" d="M63.1932 35.6101L66.9741 31.4863" />

</g>

<g>

<path stroke-width="0.25pt" d="" />

<path stroke-width="0.25pt" d="M15.4023 47.9736L15.3567 50.9733M8.85202 47.874L8.8064 50.8737" />

<path stroke-width="0.25pt" d="M15.3795 49.4735L8.82921 49.3738" />

</g>

<g>

<path stroke-width="0.25pt" d="" />

<path stroke-width="0.25pt" d="M35.8646 49.7555L36.1313 52.7437M40.207 49.368L40.4737 52.3561" />

<path stroke-width="0.25pt" d="M40.3404 50.8621L35.9979 51.2496" />

</g>

<g>

<path stroke-width="0.25pt" d="" />

<path stroke-width="0.25pt" d="M32.3242 52.2724L32.9559 55.2051M36.7242 51.3248L37.3558 54.2575" />

<path stroke-width="0.25pt" d="M37.04 52.7911L32.64 53.7387" />

</g>

<g>

<path stroke-width="0.25pt" d="" />

<path stroke-width="0.25pt" d="M41.5125 72.3886L44.3788 73.2742M39.7756 78.0103L42.6419 78.8959" />

<path stroke-width="0.25pt" d="M42.9457 72.8314L41.2087 78.4531" />

</g>

<g>

<path stroke-width="0.25pt" d="" />

<path stroke-width="0.25pt" d="M24.7397 54.615L25.4503 57.5296M30.0844 53.3119L30.795 56.2265" />

<path stroke-width="0.25pt" d="M30.4397 54.7692L25.095 56.0723" />

</g>

<g>

<path stroke-width="0.25pt" d="" />

<path stroke-width="0.25pt" d="M44.937 72.9262L47.9018 73.3847M43.7339 80.7066L46.6987 81.165" />

<path stroke-width="0.25pt" d="M46.4194 73.1554L45.2163 80.9358" />

</g>

<g>

<path stroke-width="0.25pt" d="" />

<path stroke-width="0.25pt" d="M42.7555 23.7448L39.9119 24.7008M44.8235 29.8959L41.9799 30.8519" />

<path stroke-width="0.25pt" d="M43.4017 30.3739L41.3337 24.2228" />

</g>

<g>

<path stroke-width="0.25pt" d="" />

<path stroke-width="0.25pt" d="M59.9521 53.4156L60.5115 50.4682M55.4996 52.5705L56.059 49.6232" />

<path stroke-width="0.25pt" d="M55.7793 51.0968L60.2318 51.9419" />

</g>

<g>

<path stroke-width="0.25pt" d="" />

<path stroke-width="0.25pt" d="M53.5492 34.13L50.5736 33.7481M53.8211 32.0115L50.8455 31.6296" />

<path stroke-width="0.25pt" d="M52.0614 33.9391L52.3333 31.8206" />

</g>

</g>

<g>

<g>

<path stroke-width="0.25pt" d="" />

<path stroke-width="0.25pt" d="M70.9825 38.7252L68.3399 40.1452M59.4152 28.1198L58.2294 30.8755" />

<path stroke-width="0.25pt" d="M69.6612 39.4352L67.7516 36.4701L66.045 34.4844L64.2468 32.8184L61.3362 30.7732L58.8223 29.4977" />

</g>

<g>

<path stroke-width="0.25pt" d="" />

<path stroke-width="0.25pt" d="M13.8383 34.3574L16.5917 35.5484M13.3793 64.5357L16.1677 63.4289" />

<path stroke-width="0.25pt" d="M15.215 34.9529L13.9744 38.2285L13.1648 41.0792L12.4191 45.0923L12.1339 48.3959L12.1491 51.929L12.3549 54.3889L13.0327 58.3566L13.698 60.8892L14.7735 63.9823" />

</g>

<g>

<path stroke-width="0.25pt" d="" />

<path stroke-width="0.25pt" d="M37.4359 54.5947L40.2534 53.5643M36.8208 47.7028L39.7763 48.2179" />

<path stroke-width="0.25pt" d="M38.2986 47.9604L38.2532 51.76L38.8447 54.0795" />

</g>

<g>

<path stroke-width="0.25pt" d="" />

<path stroke-width="0.25pt" d="M33.021 49.0154L36.0159 49.1891M34.9315 57.8866L37.5895 56.4954" />

<path stroke-width="0.25pt" d="M34.5184 49.1022L34.7464 52.7949L35.383 55.1796L36.2605 57.191" />

</g>

<g>

<path stroke-width="0.25pt" d="" />

<path stroke-width="0.25pt" d="M51.5116 78.298L51.3516 75.3023M32.789 72.5132L34.611 70.1299" />

<path stroke-width="0.25pt" d="M33.7 71.3215L36.3038 73.0805L38.1252 74.0684L40.7011 75.1759L43.9975 76.1585L47.5392 76.7253L51.4316 76.8001" />

</g>

<g>

<path stroke-width="0.25pt" d="" />

<path stroke-width="0.25pt" d="M25.7168 47.786L28.7044 48.0584M29.461 63.1425L31.988 61.5256" />

<path stroke-width="0.25pt" d="M27.2106 47.9222L27.1703 51.5744L27.7468 55.3358L28.5103 57.8654L29.5504 60.2707L30.7245 62.334" />

</g>

<g>

<path stroke-width="0.25pt" d="" />

<path stroke-width="0.25pt" d="M33.0915 73.3968L34.8487 70.9653M59.0519 77.4111L58.1112 74.5624" />

<path stroke-width="0.25pt" d="M33.9701 72.181L36.6036 73.864L39.3867 75.2253L42.9365 76.4398L46.1754 77.0985L47.8881 77.2854L50.8457 77.354L53.2309 77.1757L55.4225 76.8245L58.5815 75.9868" />

</g>

<g>

<path stroke-width="0.25pt" d="" />

<path stroke-width="0.25pt" d="M33.3394 30.7609L35.3033 33.0287M51.654 24.6035L51.4591 27.5972" />

<path stroke-width="0.25pt" d="M51.5566 26.1003L49.4289 26.0565L46.5434 26.3004L44.1322 26.7796L41.1502 27.7447L39.1036 28.672L35.8865 30.6499L34.3214 31.8948" />

</g>

<g>

<path stroke-width="0.25pt" d="" />

<path stroke-width="0.25pt" d="M59.6141 49.187L56.6248 49.4398M58.6478 54.2789L55.9589 52.9484" />

<path stroke-width="0.25pt" d="M57.3033 53.6137L58.0023 51.5363L58.1195 49.3134" />

</g>

<g>

<path stroke-width="0.25pt" d="" />

<path stroke-width="0.25pt" d="M49.9905 31.2394L49.992 34.2394M54.7469 31.8499L53.9878 34.7522" />

<path stroke-width="0.25pt" d="M54.3673 33.301L49.9913 32.7394" />

</g>

</g>

<g>

<defs>

<symbol overflow="visible" viewBox="0 0 1 1" id="name">

<circle stroke-width="0.25pt" cy="0" stroke="black" cx="0" r="1" fill="red" />

</symbol>

</defs>

<use y="33.5481907463" x="65.0836502365" height="1.0" xlink:href="#name" width="1.0" />

<use y="49.4236599439" x="12.104346539" height="1.0" xlink:href="#name" width="1.0" />

<use y="51.0558331247" x="38.1691527726" height="1.0" xlink:href="#name" width="1.0" />

<use y="53.2649450329" x="34.840026011" height="1.0" xlink:href="#name" width="1.0" />

<use y="75.6422684955" x="42.0772043506" height="1.0" xlink:href="#name" width="1.0" />

<use y="55.4207504127" x="27.7673731685" height="1.0" xlink:href="#name" width="1.0" />

<use y="77.0456112063" x="45.8178264773" height="1.0" xlink:href="#name" width="1.0" />

<use y="27.2983496633" x="42.367690427" height="1.0" xlink:href="#name" width="1.0" />

<use y="51.5193608648" x="58.005537518" height="1.0" xlink:href="#name" width="1.0" />

<use y="32.8798230129" x="52.1973335951" height="1.0" xlink:href="#name" width="1.0" />

</g>

</g>

</svg>

